<svg width="40" height="40" viewBox="0 0 40 40" fill="none" xmlns="http://www.w3.org/2000/svg">
<g clip-path="url(#clip0_0_58139)">
<path fill-rule="evenodd" clip-rule="evenodd" d="M40 20C40 31.0457 31.0457 40 20 40C8.9543 40 0 31.0457 0 20C0 8.9543 8.9543 0 20 0C31.0457 0 40 8.9543 40 20ZM20 10.1667C20.8284 10.1667 21.5 10.8382 21.5 11.6667V18.5H28.3333C29.1618 18.5 29.8333 19.1716 29.8333 20C29.8333 20.8284 29.1618 21.5 28.3333 21.5H21.5V28.3333C21.5 29.1618 20.8284 29.8333 20 29.8333C19.1716 29.8333 18.5 29.1618 18.5 28.3333V21.5H11.6667C10.8382 21.5 10.1667 20.8284 10.1667 20C10.1667 19.1716 10.8382 18.5 11.6667 18.5H18.5V11.6667C18.5 10.8382 19.1716 10.1667 20 10.1667Z" fill="#8D46F6"/>
</g>
<defs>
<clipPath id="clip0_0_58139">
<rect width="40" height="40" rx="12" fill="white"/>
</clipPath>
</defs>
</svg>
