<svg width="48" height="48" viewBox="0 0 48 48" fill="none" xmlns="http://www.w3.org/2000/svg">
<rect width="48" height="48" rx="24" fill="#23242C"/>
<path d="M22.4082 14.1921L22.1891 12.2032C19.2486 11.3029 16.113 13.5383 14.2062 16.0714C13.1177 17.5434 12.2174 19.1763 13.1451 20.6482C11.6183 22.0654 11.6183 25.1976 13.1451 26.6422C12.2174 28.1142 13.1177 29.7471 14.2062 31.219C16.0616 33.67 18.4305 35.2789 20.8815 35.2789C23.4146 35.2789 25.4583 33.1805 25.4583 30.62V28.6859C25.4583 27.3782 24.9688 26.6422 24.0137 25.6358L22.5691 24.0817C22.5965 23.9448 22.5965 23.8352 22.5965 23.7017C22.5965 22.6405 21.8331 21.8772 20.7719 21.8772C19.7655 21.8772 18.9748 22.6405 18.9748 23.7017C18.9748 24.6568 19.7655 25.4441 20.7719 25.4441C20.9089 25.4441 21.0184 25.4167 21.0971 25.4167L22.5965 26.9982C23.1682 27.6247 23.442 28.0868 23.442 28.8502V30.62C23.442 32.8279 21.6448 33.7522 19.656 33.0162C18.3209 32.5267 16.9585 31.5169 15.7056 29.884C14.5896 28.3299 14.8327 27.5973 15.4591 27.1591C16.0034 26.8339 16.5751 26.8853 17.5576 28.1142C17.5062 28.2751 17.4788 28.4668 17.4788 28.6585C17.4788 29.6649 18.297 30.4831 19.276 30.4831C20.255 30.4831 21.0458 29.6649 21.0458 28.6585C21.0458 27.6795 20.255 26.8613 19.276 26.8613H19.1391C17.9683 25.362 16.5511 24.3282 14.5896 25.362C13.881 24.7355 13.9906 22.5002 14.5896 21.9285C16.5511 22.9623 17.9683 21.9285 19.1391 20.4291H19.276C20.255 20.4291 21.0458 19.611 21.0458 18.632C21.0458 17.6255 20.255 16.8074 19.276 16.8074C18.297 16.8074 17.4788 17.6255 17.4788 18.632C17.4788 18.8237 17.5062 19.0119 17.561 19.1763C16.5819 20.4018 16.0068 20.4565 15.4626 20.1313C14.8361 19.6966 14.5896 18.9606 15.709 17.4065C17.2597 15.3902 19.9298 13.1857 22.4082 14.1921ZM25.5918 33.0984L25.8109 35.0873C28.7514 35.9876 31.887 33.7522 33.7938 31.219C34.8823 29.7471 35.7826 28.1142 34.8549 26.6422C36.3817 25.225 36.3817 22.0928 34.8549 20.6482C35.7826 19.1763 34.8823 17.5434 33.7938 16.0714C31.9384 13.6204 29.5695 12.0149 27.1185 12.0149C24.5854 12.0149 22.5417 14.1134 22.5417 16.6739V18.608C22.5417 19.9157 23.0312 20.6516 23.9863 21.6581L25.4309 23.2122C25.4035 23.3491 25.4035 23.4587 25.4035 23.5922C25.4035 24.6534 26.1669 25.4167 27.2281 25.4167C28.2345 25.4167 29.0252 24.6534 29.0252 23.5922C29.0252 22.6371 28.2345 21.8498 27.2281 21.8498C27.0911 21.8498 26.9816 21.8772 26.9029 21.8772L25.4035 20.2956C24.8318 19.6692 24.558 19.2071 24.558 18.4437V16.6739C24.558 14.4659 26.3552 13.5417 28.344 14.2777C29.6791 14.7672 31.0415 15.777 32.2944 17.4099C33.4104 18.964 33.1673 19.6966 32.5409 20.1347C31.9966 20.4599 31.4249 20.4086 30.4424 19.1797C30.4972 19.0154 30.5246 18.8271 30.5246 18.6354C30.5246 17.629 29.7065 16.8108 28.7274 16.8108C27.7484 16.8108 26.9576 17.629 26.9576 18.6354C26.9576 19.6144 27.7484 20.4326 28.7274 20.4326H28.8644C30.0351 21.9319 31.4523 22.9657 33.4138 21.9319C34.1224 22.5584 34.0128 24.7937 33.4138 25.3654C31.4523 24.3316 30.0351 25.3654 28.8644 26.8647H28.7274C27.7484 26.8647 26.9576 27.6829 26.9576 28.6619C26.9576 29.6683 27.7484 30.4865 28.7274 30.4865C29.7065 30.4865 30.5246 29.6683 30.5246 28.6619C30.5246 28.4702 30.4972 28.2819 30.4424 28.1176C31.4215 26.8921 31.9966 26.8374 32.5409 27.1626C33.1673 27.5973 33.4138 28.3333 32.2944 29.8874C30.7403 31.9003 28.0702 34.1048 25.5918 33.0984Z" fill="white"/>
</svg>
