<svg width="48" height="49" viewBox="0 0 48 49" fill="none" xmlns="http://www.w3.org/2000/svg">
<rect y="0.5" width="48" height="48" rx="24" fill="#D4B9EB"/>
<path d="M10.5653 18.8636V30.5H8.10511V18.8636H10.5653ZM13.0653 23.9261V25.8466H9.34943V23.9261H13.0653ZM23.196 24.6818C23.196 25.9508 22.9555 27.0303 22.4744 27.9205C21.9972 28.8106 21.3456 29.4905 20.5199 29.9602C19.6979 30.4261 18.7737 30.6591 17.7472 30.6591C16.7131 30.6591 15.785 30.4242 14.9631 29.9545C14.1411 29.4848 13.4915 28.8049 13.0142 27.9148C12.5369 27.0246 12.2983 25.947 12.2983 24.6818C12.2983 23.4129 12.5369 22.3333 13.0142 21.4432C13.4915 20.553 14.1411 19.875 14.9631 19.4091C15.785 18.9394 16.7131 18.7045 17.7472 18.7045C18.7737 18.7045 19.6979 18.9394 20.5199 19.4091C21.3456 19.875 21.9972 20.553 22.4744 21.4432C22.9555 22.3333 23.196 23.4129 23.196 24.6818ZM20.7017 24.6818C20.7017 23.8598 20.5786 23.1667 20.3324 22.6023C20.09 22.0379 19.7472 21.6098 19.304 21.3182C18.8608 21.0265 18.3419 20.8807 17.7472 20.8807C17.1525 20.8807 16.6335 21.0265 16.1903 21.3182C15.7472 21.6098 15.4025 22.0379 15.1562 22.6023C14.9138 23.1667 14.7926 23.8598 14.7926 24.6818C14.7926 25.5038 14.9138 26.197 15.1562 26.7614C15.4025 27.3258 15.7472 27.7538 16.1903 28.0455C16.6335 28.3371 17.1525 28.483 17.7472 28.483C18.3419 28.483 18.8608 28.3371 19.304 28.0455C19.7472 27.7538 20.09 27.3258 20.3324 26.7614C20.5786 26.197 20.7017 25.5038 20.7017 24.6818ZM27.4716 18.8636V30.5H25.0114V18.8636H27.4716ZM29.9716 23.9261V25.8466H26.2557V23.9261H29.9716ZM40.1023 24.6818C40.1023 25.9508 39.8617 27.0303 39.3807 27.9205C38.9034 28.8106 38.2519 29.4905 37.4261 29.9602C36.6042 30.4261 35.6799 30.6591 34.6534 30.6591C33.6193 30.6591 32.6913 30.4242 31.8693 29.9545C31.0473 29.4848 30.3977 28.8049 29.9205 27.9148C29.4432 27.0246 29.2045 25.947 29.2045 24.6818C29.2045 23.4129 29.4432 22.3333 29.9205 21.4432C30.3977 20.553 31.0473 19.875 31.8693 19.4091C32.6913 18.9394 33.6193 18.7045 34.6534 18.7045C35.6799 18.7045 36.6042 18.9394 37.4261 19.4091C38.2519 19.875 38.9034 20.553 39.3807 21.4432C39.8617 22.3333 40.1023 23.4129 40.1023 24.6818ZM37.608 24.6818C37.608 23.8598 37.4848 23.1667 37.2386 22.6023C36.9962 22.0379 36.6534 21.6098 36.2102 21.3182C35.767 21.0265 35.2481 20.8807 34.6534 20.8807C34.0587 20.8807 33.5398 21.0265 33.0966 21.3182C32.6534 21.6098 32.3087 22.0379 32.0625 22.6023C31.8201 23.1667 31.6989 23.8598 31.6989 24.6818C31.6989 25.5038 31.8201 26.197 32.0625 26.7614C32.3087 27.3258 32.6534 27.7538 33.0966 28.0455C33.5398 28.3371 34.0587 28.483 34.6534 28.483C35.2481 28.483 35.767 28.3371 36.2102 28.0455C36.6534 27.7538 36.9962 27.3258 37.2386 26.7614C37.4848 26.197 37.608 25.5038 37.608 24.6818Z" fill="white"/>
</svg>
