<svg width="48" height="49" viewBox="0 0 48 49" fill="none" xmlns="http://www.w3.org/2000/svg">
<rect y="0.5" width="48" height="48" rx="24" fill="#EFF0F5"/>
<path d="M22.4082 14.6921L22.1891 12.7032C19.2486 11.8029 16.113 14.0383 14.2062 16.5714C13.1177 18.0434 12.2174 19.6763 13.1451 21.1482C11.6183 22.5654 11.6183 25.6976 13.1451 27.1422C12.2174 28.6142 13.1177 30.2471 14.2062 31.719C16.0616 34.17 18.4305 35.7789 20.8815 35.7789C23.4146 35.7789 25.4583 33.6805 25.4583 31.12V29.1859C25.4583 27.8782 24.9688 27.1422 24.0137 26.1358L22.5691 24.5817C22.5965 24.4448 22.5965 24.3352 22.5965 24.2017C22.5965 23.1405 21.8331 22.3772 20.7719 22.3772C19.7655 22.3772 18.9748 23.1405 18.9748 24.2017C18.9748 25.1568 19.7655 25.9441 20.7719 25.9441C20.9089 25.9441 21.0184 25.9167 21.0971 25.9167L22.5965 27.4982C23.1682 28.1247 23.442 28.5868 23.442 29.3502V31.12C23.442 33.3279 21.6448 34.2522 19.656 33.5162C18.3209 33.0267 16.9585 32.0169 15.7056 30.384C14.5896 28.8299 14.8327 28.0973 15.4591 27.6591C16.0034 27.3339 16.5751 27.3853 17.5576 28.6142C17.5062 28.7751 17.4788 28.9668 17.4788 29.1585C17.4788 30.1649 18.297 30.9831 19.276 30.9831C20.255 30.9831 21.0458 30.1649 21.0458 29.1585C21.0458 28.1795 20.255 27.3613 19.276 27.3613H19.1391C17.9683 25.862 16.5511 24.8282 14.5896 25.862C13.881 25.2355 13.9906 23.0002 14.5896 22.4285C16.5511 23.4623 17.9683 22.4285 19.1391 20.9291H19.276C20.255 20.9291 21.0458 20.111 21.0458 19.132C21.0458 18.1255 20.255 17.3074 19.276 17.3074C18.297 17.3074 17.4788 18.1255 17.4788 19.132C17.4788 19.3237 17.5062 19.5119 17.561 19.6763C16.5819 20.9018 16.0068 20.9565 15.4626 20.6313C14.8361 20.1966 14.5896 19.4606 15.709 17.9065C17.2597 15.8902 19.9298 13.6857 22.4082 14.6921ZM25.5918 33.5984L25.8109 35.5873C28.7514 36.4876 31.887 34.2522 33.7938 31.719C34.8823 30.2471 35.7826 28.6142 34.8549 27.1422C36.3817 25.725 36.3817 22.5928 34.8549 21.1482C35.7826 19.6763 34.8823 18.0434 33.7938 16.5714C31.9384 14.1204 29.5695 12.5149 27.1185 12.5149C24.5854 12.5149 22.5417 14.6134 22.5417 17.1739V19.108C22.5417 20.4157 23.0312 21.1516 23.9863 22.1581L25.4309 23.7122C25.4035 23.8491 25.4035 23.9587 25.4035 24.0922C25.4035 25.1534 26.1669 25.9167 27.2281 25.9167C28.2345 25.9167 29.0252 25.1534 29.0252 24.0922C29.0252 23.1371 28.2345 22.3498 27.2281 22.3498C27.0911 22.3498 26.9816 22.3772 26.9029 22.3772L25.4035 20.7956C24.8318 20.1692 24.558 19.7071 24.558 18.9437V17.1739C24.558 14.9659 26.3552 14.0417 28.344 14.7777C29.6791 15.2672 31.0415 16.277 32.2944 17.9099C33.4104 19.464 33.1673 20.1966 32.5409 20.6347C31.9966 20.9599 31.4249 20.9086 30.4424 19.6797C30.4972 19.5154 30.5246 19.3271 30.5246 19.1354C30.5246 18.129 29.7065 17.3108 28.7274 17.3108C27.7484 17.3108 26.9576 18.129 26.9576 19.1354C26.9576 20.1144 27.7484 20.9326 28.7274 20.9326H28.8644C30.0351 22.4319 31.4523 23.4657 33.4138 22.4319C34.1224 23.0584 34.0128 25.2937 33.4138 25.8654C31.4523 24.8316 30.0351 25.8654 28.8644 27.3647H28.7274C27.7484 27.3647 26.9576 28.1829 26.9576 29.1619C26.9576 30.1683 27.7484 30.9865 28.7274 30.9865C29.7065 30.9865 30.5246 30.1683 30.5246 29.1619C30.5246 28.9702 30.4972 28.7819 30.4424 28.6176C31.4215 27.3921 31.9966 27.3374 32.5409 27.6626C33.1673 28.0973 33.4138 28.8333 32.2944 30.3874C30.7403 32.4003 28.0702 34.6048 25.5918 33.5984Z" fill="#7C8092"/>
</svg>
