<svg width="48" height="52" viewBox="0 0 48 52" fill="none" xmlns="http://www.w3.org/2000/svg">
<g opacity="0.5">
<path d="M31.4076 37.7648L26.9076 33.2648L31.4076 28.7648L36.4076 32.7648C40.9076 36.7648 35.4076 41.7648 31.4076 37.7648Z" fill="#191816"/>
<path d="M30.9076 23.2648C30.9076 29.0638 26.2066 33.7648 20.4076 33.7648C14.6086 33.7648 9.90759 29.0638 9.90759 23.2648C9.90759 17.4658 14.6086 12.7648 20.4076 12.7648C26.2066 12.7648 30.9076 17.4658 30.9076 23.2648ZM13.7704 23.2648C13.7704 26.9304 16.742 29.9019 20.4076 29.9019C24.0732 29.9019 27.0448 26.9304 27.0448 23.2648C27.0448 19.5992 24.0732 16.6276 20.4076 16.6276C16.742 16.6276 13.7704 19.5992 13.7704 23.2648Z" fill="#191816"/>
</g>
</svg>
